<svg id="Layer_1" data-name="Layer 1" xmlns="http://www.w3.org/2000/svg" viewBox="0 0 132.9205 163.81574"><defs><style>.cls-1{fill:#45adad;}.cls-2{fill:#fff;}.cls-3,.cls-4,.cls-6{fill:#231f20;}.cls-4,.cls-5,.cls-6{stroke:#231f20;stroke-miterlimit:10;}.cls-4{stroke-width:0.5px;}.cls-5{fill:none;stroke-width:1.7px;}.cls-6{stroke-width:0.6px;}</style></defs><path class="cls-1" d="M99.10709,86.9152a20.59895,20.59895,0,0,1-7.1475,9.3443c0,.0044-.0068.0044-.0068.0044-3.208,2.0864-7.6035,3.5576-13.6275,3.8662-.50829.0254-1.0278.0444-1.563.0537-10.3437.8423-18.9482,10.7803-19.5996,14.8672-.0429.2749-.2675.4809-.6465.6269a23.888,23.888,0,0,0-40.2187-7.3652c-.2988-.0771-.4619-.1211-.4619-.1211s8.168-35.2817,44.2676-46.5503c10.2519-3.2007,17.8935-3.4897,23.583-2.2602a22.78069,22.78069,0,0,1,6.5761,2.4565c.0948.0523.1851.105.2754.1651a20.60075,20.60075,0,0,1,9.4077,13.0781.56526.56526,0,0,1,.0093.0649.18731.18731,0,0,1,.0098.0479A25.4033,25.4033,0,0,1,99.10709,86.9152Z" transform="translate(-13.16422 -28.3016)"/><path class="cls-1" d="M60.63049,163.9113a20.59748,20.59748,0,0,1,7.148-9.3442.00491.00491,0,0,1,.0048-.0054c3.2105-2.0869,7.605-3.5571,13.6285-3.8662.5097-.0259,1.0293-.0444,1.5625-.0532,10.34371-.8437,18.9472-10.7808,19.6025-14.8667.0405-.2754.2686-.481.6445-.6265a23.89,23.89,0,0,0,40.2198,7.3638c.2983.0772.45991.1226.45991.1226s-8.16991,35.2793-44.26761,46.5503c-10.25,3.1992-17.895,3.4878-23.581,2.2578a22.796,22.796,0,0,1-6.5791-2.4541c-.0908-.0542-.1856-.1075-.2715-.1675a20.5891,20.5891,0,0,1-9.4092-13.0762.40576.40576,0,0,1-.0097-.0654.19139.19139,0,0,1-.0098-.0479A25.37033,25.37033,0,0,1,60.63049,163.9113Z" transform="translate(-13.16422 -28.3016)"/><path class="cls-2" d="M117.87949,144.8962a20.58674,20.58674,0,0,1-9.3481-7.1484l-.0029-.0103c-2.0884-3.2036-3.5562-7.5996-3.8658-13.6211-.0254-.5097-.0454-1.0303-.05369-1.5644-.84471-10.3428-10.78121-18.9493-14.86671-19.6006-.2749-.044-.4809-.2686-.6294-.6465a23.88853,23.88853,0,0,0,7.3662-40.2197c.0791-.2984.1221-.4595.1221-.4595s35.2813,8.1685,46.5513,44.2661c3.1987,10.251,3.4887,17.895,2.2593,23.584a22.83138,22.83138,0,0,1-2.4561,6.5762c-.05469.0927-.1074.186-.167.2739a20.58906,20.58906,0,0,1-13.0771,9.4077.37079.37079,0,0,1-.0635.0108.24072.24072,0,0,1-.0479.0087A25.38017,25.38017,0,0,1,117.87949,144.8962Z" transform="translate(-13.16422 -28.3016)"/><path class="cls-2" d="M41.37069,106.4104a20.59759,20.59759,0,0,1,9.3438,7.1484c.0059,0,.0059.0054.0059.0093,2.0859,3.2055,3.55661,7.6006,3.8662,13.623.0239.5093.0439,1.0298.0527,1.5625.8428,10.3452,10.7812,18.9488,14.8662,19.6001.2759.0454.481.27.6289.648a23.88654,23.88654,0,0,0-7.3662,40.2187c-.0781.2989-.1221.4605-.1221.4605s-35.2817-8.169-46.5507-44.2671c-3.1983-10.251-3.48739-17.8941-2.2579-23.584a22.77478,22.77478,0,0,1,2.4541-6.5752c.0538-.0933.1075-.1875.167-.2754a20.58958,20.58958,0,0,1,13.0782-9.4067.30645.30645,0,0,1,.0644-.0103.1876.1876,0,0,1,.0469-.0102A25.38471,25.38471,0,0,1,41.37069,106.4104Z" transform="translate(-13.16422 -28.3016)"/><path class="cls-3" d="M46.26169,80.9355h-.8428l-.3725-1.4443H43.79l-.35591,1.4443h-.9297l1.3574-5.0791h.9844Zm-1.8603-4.0371-.46439,1.961h.95949Z" transform="translate(-13.16422 -28.3016)"/><path class="cls-3" d="M47.66259,80.9355h-.8335V75.8564h.8335Z" transform="translate(-13.16422 -28.3016)"/><path class="cls-3" d="M52.002,77.0195h.80459l-.91259,3.916h-.89061l-.5102-2.2197-.503,2.2197h-.9194l-.9053-3.916h.8189l.5605,2.8809.5318-2.8809H50.917l.51019,2.8457Z" transform="translate(-13.16422 -28.3016)"/><path class="cls-3" d="M54.03809,78.2051h-.8008a1.23206,1.23206,0,0,1,.3521-.9697,1.58559,1.58559,0,0,1,1.0131-.2657,1.17385,1.17385,0,0,1,1.0132.3448,2.23512,2.23512,0,0,1,.1792,1.1064v1.4443a3.69442,3.69442,0,0,0,.0938,1.0703h-.7115a1.11392,1.11392,0,0,1-.0576-.2949,1.30078,1.30078,0,0,1-1.0127.3379.91214.91214,0,0,1-.7544-.331,1.26376,1.26376,0,0,1-.2373-.8037.99876.99876,0,0,1,.3462-.834,2.1867,2.1867,0,0,1,.7647-.3164,3.36787,3.36787,0,0,0,.8144-.2871v-.2657a1.57251,1.57251,0,0,0-.0288-.4746c-.0478-.081-.1948-.1221-.4399-.1221a.4584.4584,0,0,0-.4253.1875A1.47346,1.47346,0,0,0,54.03809,78.2051Zm.3662,2.2275q.63645,0,.6362-.9414v-.208c-.0044-.0908-.0068-.1533-.0068-.1875q-.35445.10845-.709.2158a.566.566,0,0,0-.4048.5323Q53.91989,80.43255,54.40429,80.4326Z" transform="translate(-13.16422 -28.3016)"/><path class="cls-3" d="M58.31689,80.9492q-.05055.252-.1113.5a.88169.88169,0,0,1-.1475.3487.75269.75269,0,0,1-.582.2441H56.894v-.5967a2.21242,2.21242,0,0,0,.39559.0068.234.234,0,0,0,.165-.1005,2.22868,2.22868,0,0,0,.0576-.3877c0-.0147-.0718-.2559-.2158-.7256q-.23655-.79695-.3233-1.1641l-.625-2.0547h.855l.5171,1.8321c.0767.2832.1392.5244.187.7255q.10035-.4233.1724-.7177l.4956-1.8399h.812Z" transform="translate(-13.16422 -28.3016)"/><path class="cls-3" d="M59.88329,79.6563h.7686a1.26484,1.26484,0,0,0-.0215.1943q0,.64605.4917.6465a.65209.65209,0,0,0,.5493-.1797.62966.62966,0,0,0,.07961-.3731c0-.2783-.16751-.4765-.503-.5966q-.87661-.30915-.92671-.3448a1.17878,1.17878,0,0,1-.4956-1.0781.90123.90123,0,0,1,.40231-.7832,1.45929,1.45929,0,0,1,.86179-.2441q1.19325,0,1.1929,1.3007h-.7114a4.69038,4.69038,0,0,0-.0718-.4814.38554.38554,0,0,0-.4023-.2373.45882.45882,0,0,0-.3233.1367.43182.43182,0,0,0-.1435.3233.58888.58888,0,0,0,.4668.5673,8.77518,8.77518,0,0,1,.88381.3379,1.21477,1.21477,0,0,1,.46679,1.085,1.03639,1.03639,0,0,1-.3663.8476,1.46592,1.46592,0,0,1-.9628.3018Q59.883,81.0791,59.88329,79.6563Z" transform="translate(-13.16422 -28.3016)"/><path class="cls-3" d="M45.66889,88.7725h-2.9311V83.6934h2.8667v.625h-1.9688v1.458h1.8247v.6113h-1.8247v1.7598h2.0332Z" transform="translate(-13.16422 -28.3016)"/><path class="cls-3" d="M49.11719,88.7725h-.9473l-.6313-1.2676L46.916,88.7725h-.89551l1.0488-2.0547-.9912-1.8604h.9341q.1794.4029.5674,1.1641a4.94167,4.94167,0,0,0,.3017-.5752q.12975-.29445.2588-.5889H49.002l-.95561,1.875Z" transform="translate(-13.16422 -28.3016)"/><path class="cls-3" d="M50.76949,88.8447a1.26026,1.26026,0,0,1-1.2002-.5967,2.41889,2.41889,0,0,1-.2368-1.1923c0-.0811.00251-.1914.0073-.3301.0044-.1397.0069-.2354.0069-.2881a1.95291,1.95291,0,0,1,.2949-1.1855,1.33772,1.33772,0,0,1,1.1279-.4454,1.06865,1.06865,0,0,1,1.3072,1.2715h-.8228c-.0288-.1572-.0576-.3135-.08589-.4668a.37365.37365,0,0,0-.39411-.2226.55392.55392,0,0,0-.58689.4746,6.79213,6.79213,0,0,0-.04981,1.0986,2.141,2.141,0,0,0,.1465.9238.49868.49868,0,0,0,.4761.2832.61648.61648,0,0,0,.3794-.0908A.35359.35359,0,0,0,51.25,87.832c.01219-.1132.02289-.2275.03269-.3457h.8662A1.21019,1.21019,0,0,1,50.76949,88.8447Z" transform="translate(-13.16422 -28.3016)"/><path class="cls-3" d="M53.41309,86.833q-.05713,1.30815.6108,1.3076.6321,0,.6826-.6826h.7759a1.741,1.741,0,0,1-.1435.7041,1.322,1.322,0,0,1-1.315.7109,1.24451,1.24451,0,0,1-1.2861-.9404,5.307,5.307,0,0,1-.1509-1.5019,1.97284,1.97284,0,0,1,.2876-1.0557,1.26364,1.26364,0,0,1,1.1494-.6328,1.29789,1.29789,0,0,1,1.315.7041,3.40893,3.40893,0,0,1,.1723,1.3867Zm.6108-1.4805q-.6108,0-.6108,1.0137h1.3437Q54.71361,85.3525,54.02389,85.3525Z" transform="translate(-13.16422 -28.3016)"/><path class="cls-3" d="M56.83979,86.833q-.057,1.30815.6109,1.3076.6321,0,.6826-.6826h.7759a1.741,1.741,0,0,1-.1436.7041,1.32187,1.32187,0,0,1-1.3149.7109,1.24444,1.24444,0,0,1-1.2861-.9404,5.30738,5.30738,0,0,1-.1509-1.5019,1.97284,1.97284,0,0,1,.2876-1.0557,1.26364,1.26364,0,0,1,1.1494-.6328,1.29775,1.29775,0,0,1,1.3149.7041A3.4103,3.4103,0,0,1,58.938,86.833Zm.6109-1.4805q-.6108,0-.6109,1.0137h1.3438Q58.14039,85.3525,57.45069,85.3525Z" transform="translate(-13.16422 -28.3016)"/><path class="cls-3" d="M59.73539,87.9678a3.76956,3.76956,0,0,1-.2012-1.3145,2.90594,2.90594,0,0,1,.19381-1.1064,1.04519,1.04519,0,0,1,1.00589-.7403,1.12855,1.12855,0,0,1,.8765.3096V83.6934h.7543v5.0791h-.7905v-.2871a.99543.99543,0,0,1-.7471.3593A1.12643,1.12643,0,0,1,59.73539,87.9678Zm1.3505.2226q.4959,0,.4956-1.3427c0-.1153-.0034-.2559-.0107-.4209s-.0107-.2647-.0107-.2979q0-.7398-.4888-.7402-.59625,0-.7612,1.2646Q60.46084,88.1914,61.08589,88.1904Z" transform="translate(-13.16422 -28.3016)"/><path class="cls-3" d="M37.55419,96.6104H34.623V91.5313h2.86669v.625H35.521v1.458h1.82469v.6103H35.521v1.7608h2.03319Z" transform="translate(-13.16422 -28.3016)"/><path class="cls-3" d="M41.00239,96.6104h-.9472l-.6314-1.2676-.6225,1.2676h-.8955l1.0488-2.0547-.9912-1.8614h.9341q.1794.4029.5673,1.1641a4.81716,4.81716,0,0,0,.3018-.5742c.08641-.1963.17241-.3936.2588-.5899h.8618l-.9556,1.875Z" transform="translate(-13.16422 -28.3016)"/><path class="cls-3" d="M44.18359,93.3555a4.58573,4.58573,0,0,1,.1592,1.4228,3.624,3.624,0,0,1-.1592,1.25.95428.95428,0,0,1-.9697.6465,1.14041,1.14041,0,0,1-.8828-.3086v1.3506H41.584V92.6367h.74709v.3242a1.03128,1.03128,0,0,1,.7817-.3593A1.04956,1.04956,0,0,1,44.18359,93.3555Zm-.6885,2.3711a2.33517,2.33517,0,0,0,.1294-.9483q0-1.56585-.6826-1.5947-.6108-.02205-.6108,1.041c0,.082.0024.1856.0073.3125s.0073.208.0073.2412a3.796,3.796,0,0,0,.05031.7539c.07179.3262.23439.4883.48829.4883A.62867.62867,0,0,0,43.49509,95.7266Z" transform="translate(-13.16422 -28.3016)"/><path class="cls-3" d="M45.65769,94.6699q-.05715,1.30815.6109,1.3076.63195,0,.6826-.6826h.7759a1.74064,1.74064,0,0,1-.1436.7041,1.32107,1.32107,0,0,1-1.3149.7119,1.24444,1.24444,0,0,1-1.2862-.9414,5.30223,5.30223,0,0,1-.1509-1.5019,1.97531,1.97531,0,0,1,.2876-1.0557,1.26285,1.26285,0,0,1,1.1495-.6318,1.29775,1.29775,0,0,1,1.3149.7041,3.40183,3.40183,0,0,1,.1724,1.3857Zm.6109-1.4795q-.611,0-.6109,1.0127h1.3438Q46.95829,93.1909,46.26859,93.1904Z" transform="translate(-13.16422 -28.3016)"/><path class="cls-3" d="M49.65969,96.6816a1.25964,1.25964,0,0,1-1.2002-.5957,2.4258,2.4258,0,0,1-.2368-1.1933c0-.0811.0024-.1914.00731-.3301q.00659-.20805.00679-.2871a1.95218,1.95218,0,0,1,.2949-1.1856,1.338,1.338,0,0,1,1.128-.4453,1.06863,1.06863,0,0,1,1.3071,1.2715H50.144q-.04321-.2373-.08591-.4668a.37357.37357,0,0,0-.394-.2226.554.554,0,0,0-.587.4736,6.81784,6.81784,0,0,0-.0498,1.0996,2.141,2.141,0,0,0,.1465.9229.4982.4982,0,0,0,.4761.2841.60894.60894,0,0,0,.3794-.0918.35334.35334,0,0,0,.1108-.2461c.0122-.1123.023-.2275.0328-.3447h.8662A1.20953,1.20953,0,0,1,49.65969,96.6816Z" transform="translate(-13.16422 -28.3016)"/><path class="cls-3" d="M52.72949,96.6318a5.171,5.171,0,0,1-.5147-.0722.53519.53519,0,0,1-.2934-.2149,1.855,1.855,0,0,1-.1069-.7695V93.248h-.4527v-.5966h.4527V91.5313h.8334v1.1201H53.23v.5966h-.58211v2.0547q0,.50985.0709.5743,0,.15075.51121.1084v.625Z" transform="translate(-13.16422 -28.3016)"/><path class="cls-3" d="M54.71289,93.8799h-.8008a1.2321,1.2321,0,0,1,.3521-.9697,1.58561,1.58561,0,0,1,1.0131-.2657,1.17385,1.17385,0,0,1,1.0132.3448,2.23512,2.23512,0,0,1,.1792,1.1064V95.54a3.69613,3.69613,0,0,0,.0938,1.0704h-.7114a1.11121,1.11121,0,0,1-.0577-.295,1.30078,1.30078,0,0,1-1.0127.3379.91214.91214,0,0,1-.7544-.331,1.26375,1.26375,0,0,1-.23729-.8037.99873.99873,0,0,1,.34619-.834,2.1867,2.1867,0,0,1,.7647-.3164,3.36787,3.36787,0,0,0,.8144-.2871v-.2657a1.57251,1.57251,0,0,0-.0288-.4746c-.0478-.081-.1948-.122-.4399-.122a.45841.45841,0,0,0-.4253.1875A1.47161,1.47161,0,0,0,54.71289,93.8799Zm.3662,2.2275q.63645,0,.6362-.9414v-.208c-.0044-.0908-.0068-.1533-.0068-.1875q-.35445.10845-.709.2158a.566.566,0,0,0-.4048.5323Q54.59469,96.10735,55.07909,96.1074Z" transform="translate(-13.16422 -28.3016)"/><path class="cls-3" d="M58.41939,96.6318a5.1657,5.1657,0,0,1-.5146-.0722.53547.53547,0,0,1-.2935-.2149,1.8552,1.8552,0,0,1-.1069-.7695V93.248h-.4526v-.5966h.4526V91.5313h.8335v1.1201h.582v.5966h-.582v2.0547q0,.50985.0708.5743,0,.15075.5112.1084v.625Z" transform="translate(-13.16422 -28.3016)"/><path class="cls-3" d="M59.48729,91.8398a.56061.56061,0,0,1,.1509-.3984.48324.48324,0,0,1,.7222,0,.56853.56853,0,0,1,.1469.3984.56173.56173,0,0,1-.1469.3916.485.485,0,0,1-.7222,0A.554.554,0,0,1,59.48729,91.8398Zm.9053,4.7706h-.8262V92.7666a1.8381,1.8381,0,0,0,.45261.0713,1.033,1.033,0,0,0,.37359-.0713Z" transform="translate(-13.16422 -28.3016)"/><path class="cls-3" d="M61.04639,94.6631a2.36716,2.36716,0,0,1,.5029-1.624,1.29845,1.29845,0,0,1,1.01271-.4307,1.25113,1.25113,0,0,1,1.01319.4092,2.53135,2.53135,0,0,1,.42381,1.6455,2.3903,2.3903,0,0,1-.48831,1.667,1.24569,1.24569,0,0,1-.94869.3877,1.39439,1.39439,0,0,1-.93361-.3164A2.14661,2.14661,0,0,1,61.04639,94.6631Zm.8618.0283a3.079,3.079,0,0,0,.1367,1.0713.5316.5316,0,0,0,.5244.3662q.65415,0,.6538-1.4375,0-1.5147-.6538-1.5156Q61.92264,93.1758,61.90819,94.6914Z" transform="translate(-13.16422 -28.3016)"/><path class="cls-3" d="M67.33979,96.6104h-.8261V93.8008c0-.3731-.1509-.5606-.45269-.5606q-.54632,0-.54591.6612v2.709h-.8335V92.6943h.8047v.3233a1.04776,1.04776,0,0,1,.8765-.3731q.9771,0,.977,1.0127Z" transform="translate(-13.16422 -28.3016)"/><path class="cls-3" d="M68.06539,95.3311H68.834a1.26386,1.26386,0,0,0-.02151.1943q0,.64605.4917.6465a.65209.65209,0,0,0,.5493-.1797.62967.62967,0,0,0,.0796-.3731c0-.2783-.1675-.4765-.5029-.5966q-.87675-.30915-.9268-.3448a1.179,1.179,0,0,1-.4956-1.0781.9011.9011,0,0,1,.4024-.7832,1.45891,1.45891,0,0,1,.86181-.2441q1.19308,0,1.19279,1.3007h-.7114a4.69038,4.69038,0,0,0-.0718-.4814.38546.38546,0,0,0-.4023-.2373.45877.45877,0,0,0-.3232.1367.43192.43192,0,0,0-.1436.3233.589.589,0,0,0,.4668.5673,8.7732,8.7732,0,0,1,.8838.3379,1.21478,1.21478,0,0,1,.4668,1.085,1.03648,1.03648,0,0,1-.3662.8476,1.46639,1.46639,0,0,1-.9629.3018Q68.06524,96.7539,68.06539,95.3311Z" transform="translate(-13.16422 -28.3016)"/><path class="cls-3" d="M31.26659,137.085l-.999,5.0791h-1.0147l-.6758-3.1045c-.0297-.1436-.0639-.3008-.1035-.4737-.0273.1348-.0571.293-.0893.4756l-.6895,3.1026H26.769l-.96281-5.0791h.8486l.4751,2.5088q.0585.3075.1396.7753.07335-.33105.1534-.705l.6108-2.5791h1.0488l.438,1.9384q.15377.69735.2441,1.3438l.1695-.8262.5268-2.456Z" transform="translate(-13.16422 -28.3016)"/><path class="cls-3" d="M32.15719,140.2246q-.05715,1.30815.6109,1.3076.6321,0,.6826-.6826h.7759a1.74117,1.74117,0,0,1-.14359.7041,1.32188,1.32188,0,0,1-1.31491.7109,1.24463,1.24463,0,0,1-1.2862-.9404,5.30786,5.30786,0,0,1-.1508-1.5019,1.972,1.972,0,0,1,.2876-1.0557,1.26353,1.26353,0,0,1,1.1494-.6328,1.29778,1.29778,0,0,1,1.31491.7041,3.41055,3.41055,0,0,1,.17239,1.3867Zm.6109-1.4805q-.611,0-.6109,1.0137H33.501Q33.45779,138.7441,32.76809,138.7441Z" transform="translate(-13.16422 -28.3016)"/><path class="cls-3" d="M39.45649,140.9434a1.08441,1.08441,0,0,1-.4384.9404,1.72443,1.72443,0,0,1-1.0342.2803h-1.6597V137.085h1.5947a1.42358,1.42358,0,0,1,1.0777.3515,1.577,1.577,0,0,1,.3305,1.1065.945.945,0,0,1-.6826.9052.95815.95815,0,0,1,.6753.5752A2.45326,2.45326,0,0,1,39.45649,140.9434Zm-1.0058-2.2637a1.81006,1.81006,0,0,0-.0899-.7002.44866.44866,0,0,0-.36279-.2266c-.04781-.0097-.30171-.0234-.76171-.0429v1.4658h.4815a1.28616,1.28616,0,0,0,.5029-.1006A.41444.41444,0,0,0,38.45069,138.6797Zm-1.2144,2.8594h.6866a.68724.68724,0,0,0,.45111-.1504.489.489,0,0,0,.18459-.4004,3.85246,3.85246,0,0,0-.0435-.6865q-.101-.5157-.4477-.5157h-.8311Z" transform="translate(-13.16422 -28.3016)"/><path class="cls-3" d="M40.70609,140.2246q-.05714,1.30815.6108,1.3076.6321,0,.6826-.6826h.7759a1.73933,1.73933,0,0,1-.1436.7041,1.32178,1.32178,0,0,1-1.3149.7109,1.24444,1.24444,0,0,1-1.2861-.9404,5.307,5.307,0,0,1-.1509-1.5019,1.97284,1.97284,0,0,1,.2876-1.0557,1.26364,1.26364,0,0,1,1.1494-.6328,1.29774,1.29774,0,0,1,1.3149.7041,3.40857,3.40857,0,0,1,.1724,1.3867Zm.6108-1.4805q-.6108,0-.6108,1.0137h1.3437Q42.00661,138.7441,41.31689,138.7441Z" transform="translate(-13.16422 -28.3016)"/><path class="cls-3" d="M44.09769,142.1641h-.8335V137.085h.8335Z" transform="translate(-13.16422 -28.3016)"/><path class="cls-3" d="M44.665,137.3936a.56235.56235,0,0,1,.15089-.3985.48524.48524,0,0,1,.7222,0,.5704.5704,0,0,1,.147.3985.56043.56043,0,0,1-.147.3916.48324.48324,0,0,1-.7222,0A.55267.55267,0,0,1,44.665,137.3936Zm.90529,4.7705h-.8262v-3.8438a1.84777,1.84777,0,0,0,.4527.0723,1.03435,1.03435,0,0,0,.3735-.0723Z" transform="translate(-13.16422 -28.3016)"/><path class="cls-3" d="M46.978,140.2246q-.05717,1.30815.61089,1.3076.6321,0,.6826-.6826h.7759a1.741,1.741,0,0,1-.1436.7041,1.32187,1.32187,0,0,1-1.3149.7109,1.24463,1.24463,0,0,1-1.2862-.9404,5.30786,5.30786,0,0,1-.1508-1.5019,1.972,1.972,0,0,1,.2876-1.0557,1.26353,1.26353,0,0,1,1.1494-.6328,1.29774,1.29774,0,0,1,1.3149.7041,3.41034,3.41034,0,0,1,.1724,1.3867Zm.61089-1.4805q-.61095,0-.61089,1.0137h1.34379Q48.27861,138.7441,47.58889,138.7441Z" transform="translate(-13.16422 -28.3016)"/><path class="cls-3" d="M51.50389,138.249h.8262l-1.0415,3.9151h-.9195l-1.0493-3.9151H50.168l.66059,2.8164Z" transform="translate(-13.16422 -28.3016)"/><path class="cls-3" d="M53.37209,140.2246q-.05713,1.30815.6108,1.3076.6321,0,.6826-.6826h.7759a1.741,1.741,0,0,1-.1435.7041,1.322,1.322,0,0,1-1.315.7109,1.24444,1.24444,0,0,1-1.2861-.9404,5.307,5.307,0,0,1-.1509-1.5019,1.97284,1.97284,0,0,1,.2876-1.0557,1.26364,1.26364,0,0,1,1.1494-.6328,1.298,1.298,0,0,1,1.315.7041,3.4107,3.4107,0,0,1,.1723,1.3867Zm.6108-1.4805q-.6108,0-.6108,1.0137h1.3437Q54.67261,138.7441,53.98289,138.7441Z" transform="translate(-13.16422 -28.3016)"/><path class="cls-3" d="M28.25979,145.2314a.561.561,0,0,1,.1508-.3984.48324.48324,0,0,1,.7222,0,.56812.56812,0,0,1,.147.3984.56131.56131,0,0,1-.147.3916.485.485,0,0,1-.7222,0A.55438.55438,0,0,1,28.25979,145.2314Zm.90521,4.7706h-.82611v-3.8438a1.838,1.838,0,0,0,.4526.0713,1.03289,1.03289,0,0,0,.37351-.0713Z" transform="translate(-13.16422 -28.3016)"/><path class="cls-3" d="M32.46969,150.002h-.8261v-2.8096c0-.3731-.1509-.5606-.4527-.5606q-.5463,0-.54589.6612v2.709h-.83351v-3.9161h.8047v.3233a1.04776,1.04776,0,0,1,.8765-.3731q.977,0,.977,1.0127Z" transform="translate(-13.16422 -28.3016)"/><path class="cls-3" d="M37.87209,146.8408a1.63115,1.63115,0,0,1-.3438.8838,1.4665,1.4665,0,0,1-1.0312.3086,7.78746,7.78746,0,0,1-.8955.0068v1.962h-.898v-5.0791h1.5161a2.80964,2.80964,0,0,1,.9121.1142,1.002,1.002,0,0,1,.5821.4961.02088.02088,0,0,0-.0074-.0146v.0068c0-.0137.0303.1211.0899.4062a3.56906,3.56906,0,0,1,.0898.708A1.29042,1.29042,0,0,1,37.87209,146.8408Zm-2.2705-1.25v1.7813a5.47353,5.47353,0,0,0,.729-.0215q.63645-.0147.6362-.5527a2.76729,2.76729,0,0,0-.0786-.9131.50649.50649,0,0,0-.2075-.1934.81652.81652,0,0,0-.336-.0723A5.55376,5.55376,0,0,0,35.60159,145.5908Z" transform="translate(-13.16422 -28.3016)"/><path class="cls-3" d="M39.12889,148.0615q-.05715,1.30815.6108,1.3076.6321,0,.6827-.6826h.7758a1.739,1.739,0,0,1-.1435.7041,1.32114,1.32114,0,0,1-1.315.7119,1.2444,1.2444,0,0,1-1.2861-.9414,5.30261,5.30261,0,0,1-.1509-1.5019,1.97531,1.97531,0,0,1,.2876-1.0557,1.2628,1.2628,0,0,1,1.1494-.6318,1.29781,1.29781,0,0,1,1.315.7041,3.402,3.402,0,0,1,.1724,1.3857Zm.6108-1.4795q-.6108,0-.6108,1.0127h1.3438Q40.42934,146.5825,39.73969,146.582Z" transform="translate(-13.16422 -28.3016)"/><path class="cls-3" d="M41.69429,148.0547a2.36735,2.36735,0,0,1,.503-1.624A1.29845,1.29845,0,0,1,43.21,146a1.25079,1.25079,0,0,1,1.01309.4092,2.53071,2.53071,0,0,1,.42391,1.6455,2.3903,2.3903,0,0,1-.48831,1.667,1.24584,1.24584,0,0,1-.94869.3877,1.39421,1.39421,0,0,1-.93361-.3164A2.14663,2.14663,0,0,1,41.69429,148.0547Zm.8619.0283a3.079,3.079,0,0,0,.1367,1.0713.5316.5316,0,0,0,.5244.3662q.654,0,.6538-1.4375,0-1.5147-.6538-1.5156Q42.57049,146.5674,42.55619,148.083Z" transform="translate(-13.16422 -28.3016)"/><path class="cls-3" d="M47.99319,146.7471a4.58669,4.58669,0,0,1,.1591,1.4228,3.62467,3.62467,0,0,1-.1591,1.25.95431.95431,0,0,1-.9698.6465,1.14057,1.14057,0,0,1-.8828-.3086v1.3506h-.747v-5.0801h.747v.3242a1.0315,1.0315,0,0,1,.7818-.3593A1.04964,1.04964,0,0,1,47.99319,146.7471Zm-.6885,2.3711a2.33517,2.33517,0,0,0,.1294-.9483q0-1.56585-.6826-1.5947-.61095-.02205-.6109,1.041c0,.082.0025.1856.0073.3125s.0074.208.0074.2412a3.797,3.797,0,0,0,.0503.7539c.0717.3262.2343.4883.4882.4883A.62875.62875,0,0,0,47.30469,149.1182Z" transform="translate(-13.16422 -28.3016)"/><path class="cls-3" d="M49.53959,150.002h-.8335v-5.0791h.8335Z" transform="translate(-13.16422 -28.3016)"/><path class="cls-3" d="M51.05469,148.0615q-.05715,1.30815.6108,1.3076.6321,0,.6826-.6826H53.124a1.74084,1.74084,0,0,1-.14351.7041,1.32113,1.32113,0,0,1-1.315.7119,1.24433,1.24433,0,0,1-1.2861-.9414,5.30223,5.30223,0,0,1-.1509-1.5019,1.97531,1.97531,0,0,1,.2876-1.0557,1.2628,1.2628,0,0,1,1.1494-.6318,1.2979,1.2979,0,0,1,1.315.7041,3.40043,3.40043,0,0,1,.1723,1.3857Zm.6108-1.4795q-.6108,0-.6108,1.0127h1.3437Q52.35519,146.5825,51.66549,146.582Z" transform="translate(-13.16422 -28.3016)"/><path class="cls-3" d="M28.81979,155.1094H28.019a1.23241,1.23241,0,0,1,.35209-.9698,1.58,1.58,0,0,1,1.0132-.2666,1.17385,1.17385,0,0,1,1.0132.3448,2.24132,2.24132,0,0,1,.1792,1.1064v1.4444a3.69619,3.69619,0,0,0,.0937,1.0703H29.959a1.102,1.102,0,0,1-.05761-.294,1.30461,1.30461,0,0,1-1.0127.3369.9112.9112,0,0,1-.7544-.33,1.26675,1.26675,0,0,1-.23729-.8047.99512.99512,0,0,1,.34619-.833,2.16806,2.16806,0,0,1,.7646-.3164,3.41009,3.41009,0,0,0,.8145-.2872v-.2666a1.56812,1.56812,0,0,0-.0288-.4736c-.0479-.081-.1949-.1221-.44-.1221a.46011.46011,0,0,0-.4253.1866A1.48265,1.48265,0,0,0,28.81979,155.1094Zm.36621,2.2265q.63658,0,.63629-.9404v-.209c-.0044-.0908-.0069-.1533-.0069-.1865q-.35445.107-.709.2158a.56475.56475,0,0,0-.4047.5313Q28.70169,157.33585,29.186,157.3359Z" transform="translate(-13.16422 -28.3016)"/><path class="cls-3" d="M33.99659,157.8389h-.8262v-2.8086q0-.561-.4526-.5606-.54645,0-.5459.6612v2.708h-.8335v-3.9151h.8047v.3233a1.04789,1.04789,0,0,1,.8764-.3741q.9771,0,.9771,1.0137Z" transform="translate(-13.16422 -28.3016)"/><path class="cls-3" d="M34.77249,157.0342a3.76956,3.76956,0,0,1-.2012-1.3145,2.90649,2.90649,0,0,1,.1938-1.1064,1.04529,1.04529,0,0,1,1.00591-.7403,1.1284,1.1284,0,0,1,.87649.3096v-1.4228h.7544v5.0791h-.7906v-.2871a.99542.99542,0,0,1-.747.3593A1.12646,1.12646,0,0,1,34.77249,157.0342Zm1.35051.2226q.49589,0,.49569-1.3427c0-.1153-.0035-.2559-.0108-.4209s-.0107-.2647-.0107-.2979q0-.7398-.4888-.7402-.59625,0-.7612,1.2646Q35.49809,157.2578,36.123,157.2568Z" transform="translate(-13.16422 -28.3016)"/><path class="cls-3" d="M42.833,153.3916H41.71919v4.4473h-.9126v-4.4473h-1.1132v-.6318H42.833Z" transform="translate(-13.16422 -28.3016)"/><path class="cls-3" d="M45.87939,157.8389h-.8267v-2.8594q0-.517-.4521-.5166a.486.486,0,0,0-.4888.2871.88839.88839,0,0,0-.0644.373v2.7159h-.8262v-5.0791h.8262v1.4297a1.11479,1.11479,0,0,1,.84761-.3165.89179.89179,0,0,1,.88379.4454,1.1526,1.1526,0,0,1,.1006.5244Z" transform="translate(-13.16422 -28.3016)"/><path class="cls-3" d="M47.23679,155.8994q-.05715,1.30815.6109,1.3076.632,0,.6826-.6826h.7759a1.74064,1.74064,0,0,1-.1436.7041,1.322,1.322,0,0,1-1.3149.711,1.24471,1.24471,0,0,1-1.2862-.9405,5.307,5.307,0,0,1-.1509-1.5019,1.97309,1.97309,0,0,1,.2876-1.0557,1.2637,1.2637,0,0,1,1.1495-.6328,1.29775,1.29775,0,0,1,1.3149.7041,3.4103,3.4103,0,0,1,.17241,1.3867Zm.6109-1.4805q-.611,0-.6109,1.0137h1.3438Q48.53739,154.4189,47.84769,154.4189Z" transform="translate(-13.16422 -28.3016)"/><path class="cls-3" d="M49.74409,153.0684a.56232.56232,0,0,1,.15091-.3985.48523.48523,0,0,1,.72219,0,.5704.5704,0,0,1,.147.3985.56043.56043,0,0,1-.147.3916.48323.48323,0,0,1-.72219,0A.55264.55264,0,0,1,49.74409,153.0684Zm.9053,4.7705h-.8262v-3.8438a1.84777,1.84777,0,0,0,.4527.0723,1.03435,1.03435,0,0,0,.3735-.0723Z" transform="translate(-13.16422 -28.3016)"/><path class="cls-3" d="M53.59469,155.2598h-.8691a1.30449,1.30449,0,0,0,.1006-.4483c0-.2187-.1055-.3271-.3159-.3271q-.345,0-.34529.9814v2.3731h-.833v-3.9151h.80419v.3379a.8352.8352,0,0,1,.7115-.3887q.76905,0,.7685.9346c0,.0762-.0034.166-.0107.2695C53.59859,155.1797,53.59469,155.2412,53.59469,155.2598Z" transform="translate(-13.16422 -28.3016)"/><path class="cls-3" d="M30.84619,160.5977h1.583a1.592,1.592,0,0,1,1.5244.7324,3.63116,3.63116,0,0,1,.2857,1.6592v.4814q-.00735.3237-.0074.4746a1.7227,1.7227,0,0,1-.4546,1.2783,1.76828,1.76828,0,0,1-1.3042.4532h-1.6269Zm.916.6171v3.837h.5894q.9345,0,.935-1.0704,0-.4101-.0293-1.207a5.989,5.989,0,0,0-.0957-1.0928.78578.78578,0,0,0-.5967-.4453Q32.51374,161.229,31.76219,161.2148Z" transform="translate(-13.16422 -28.3016)"/><path class="cls-3" d="M37.207,163.0977h-.88671a1.27915,1.27915,0,0,0,.1026-.4493.28719.28719,0,0,0-.3223-.3271q-.35235,0-.3521.9824v2.3731h-.8501v-3.9161h.8208v.3379a.85488.85488,0,0,1,.7256-.3877q.78375,0,.78421.9336c0,.0772-.00391.167-.01121.2696C37.21039,163.0176,37.207,163.0781,37.207,163.0977Z" transform="translate(-13.16422 -28.3016)"/><path class="cls-3" d="M38.57709,163.7363q-.0585,1.30815.6231,1.3076a.6394.6394,0,0,0,.6963-.6826h.791a1.70712,1.70712,0,0,1-.14649.7041,1.35235,1.35235,0,0,1-1.34081.7119,1.26644,1.26644,0,0,1-1.312-.9414,5.20445,5.20445,0,0,1-.1538-1.5019,1.94134,1.94134,0,0,1,.2934-1.0557,1.29355,1.29355,0,0,1,1.1724-.6318,1.32819,1.32819,0,0,1,1.34081.7041,3.33859,3.33859,0,0,1,.17579,1.3857Zm.6231-1.4795q-.62325,0-.6231,1.0127h1.3707Q39.90384,162.2573,39.20019,162.2568Z" transform="translate(-13.16422 -28.3016)"/><path class="cls-3" d="M42.14209,162.9463h-.8169a1.21606,1.21606,0,0,1,.3594-.9697,1.63947,1.63947,0,0,1,1.0332-.2657,1.21006,1.21006,0,0,1,1.03321.3448,2.1971,2.1971,0,0,1,.18309,1.1064v1.4443a3.64073,3.64073,0,0,0,.0952,1.0704h-.7256a1.09151,1.09151,0,0,1-.0586-.295,1.343,1.343,0,0,1-1.0332.3379.939.939,0,0,1-.7695-.331,1.24793,1.24793,0,0,1-.2417-.8037.98893.98893,0,0,1,.353-.834,2.25851,2.25851,0,0,1,.7798-.3164,3.48479,3.48479,0,0,0,.8311-.2871v-.2657a1.56855,1.56855,0,0,0-.0293-.4746c-.0494-.081-.1988-.122-.4488-.122a.47163.47163,0,0,0-.4341.1875A1.44733,1.44733,0,0,0,42.14209,162.9463Zm.3735,2.2275q.6489,0,.649-.9414v-.208q-.00735-.1362-.0074-.1875-.361.10845-.7226.2158a.567.567,0,0,0-.4131.5323Q42.02149,165.17375,42.51559,165.1738Z" transform="translate(-13.16422 -28.3016)"/><path class="cls-3" d="M49.24659,165.6768h-.8428v-2.6524a.92417.92417,0,0,0-.1099-.4521.4041.4041,0,0,0-.3662-.251.44631.44631,0,0,0-.4033.2295.85766.85766,0,0,0-.1245.4736v2.6524h-.8428v-2.6524a.93072.93072,0,0,0-.1172-.4521.42123.42123,0,0,0-.3588-.251q-.52814,0-.5279.7031v2.6524h-.8501v-3.9161h.8208v.3233a.58591.58591,0,0,1,.563-.3731.97457.97457,0,0,1,.9146.4454,1.12381,1.12381,0,0,1,.9287-.4454,1.2822,1.2822,0,0,1,.8706.3594,1.22273,1.22273,0,0,1,.4458.9483Z" transform="translate(-13.16422 -28.3016)"/><path class="cls-3" d="M49.82569,164.3975h.7842a1.28055,1.28055,0,0,0-.022.1943q0,.64605.5015.6465a.67279.67279,0,0,0,.5605-.1797.62036.62036,0,0,0,.08111-.3731c0-.2783-.17091-.4765-.51271-.5966q-.8943-.30915-.9454-.3448a1.17038,1.17038,0,0,1-.5058-1.0781.89639.89639,0,0,1,.4106-.7832,1.51012,1.51012,0,0,1,.8794-.2441q1.2159,0,1.2163,1.3008h-.7255a4.73782,4.73782,0,0,0-.0733-.4815.39373.39373,0,0,0-.4101-.2373.47259.47259,0,0,0-.3301.1367.42787.42787,0,0,0-.1465.3233.59193.59193,0,0,0,.4766.5673,9.13941,9.13941,0,0,1,.9013.3379,1.20462,1.20462,0,0,1,.4761,1.085,1.02784,1.02784,0,0,1-.3735.8477,1.517,1.517,0,0,1-.982.3017Q49.82594,165.8203,49.82569,164.3975Z" transform="translate(-13.16422 -28.3016)"/><path class="cls-3" d="M105.75489,99.501h.9053a2.39163,2.39163,0,0,1-.4024,1.3008,1.49364,1.49364,0,0,1-1.2432.4882,2.02235,2.02235,0,0,1-1.3212-.3525,1.44771,1.44771,0,0,1-.4463-.9424,13.49124,13.49124,0,0,1-.043-1.3818,4.17749,4.17749,0,0,1,.2666-1.7764,1.56931,1.56931,0,0,1,1.5518-.7627,2.64766,2.64766,0,0,1,.8398.1289,1.01075,1.01075,0,0,1,.63971.5176,1.65982,1.65982,0,0,1,.10049.4023c.0332.2012.0596.335.0791.4024h-.8545a.41537.41537,0,0,1-.0146-.1152.94768.94768,0,0,0-.043-.2442.53205.53205,0,0,0-.3232-.3515.96879.96879,0,0,0-.4385-.1084.65017.65017,0,0,0-.665.4209,6.6186,6.6186,0,0,0-.169,1.9257,6.52051,6.52051,0,0,0,.044,1.0078.6374.6374,0,0,0,.6533.5899.93148.93148,0,0,0,.58891-.1514.67814.67814,0,0,0,.19429-.4121C105.68749,99.8936,105.72169,99.6982,105.75489,99.501Z" transform="translate(-13.16422 -28.3016)"/><path class="cls-3" d="M107.01949,99.2715a2.35878,2.35878,0,0,1,.503-1.624,1.297,1.297,0,0,1,1.0127-.4307,1.247,1.247,0,0,1,1.0127.4092,2.52671,2.52671,0,0,1,.4238,1.6455,2.38672,2.38672,0,0,1-.4883,1.666,1.24537,1.24537,0,0,1-.9482.3887,1.3933,1.3933,0,0,1-.9336-.3164A2.14629,2.14629,0,0,1,107.01949,99.2715Zm.8614.0283a3.07253,3.07253,0,0,0,.1367,1.0703.53149.53149,0,0,0,.52441.3662q.65473,0,.65429-1.4365,0-1.51605-.65429-1.5156Q107.89594,97.7842,107.88089,99.2998Z" transform="translate(-13.16422 -28.3016)"/><path class="cls-3" d="M113.31249,101.2178h-.8262V98.4092q0-.561-.4521-.5606-.54645,0-.5459.6612v2.708h-.834V97.3027h.80471v.3233a1.04857,1.04857,0,0,1,.87689-.374q.9771,0,.9766,1.0136Z" transform="translate(-13.16422 -28.3016)"/><path class="cls-3" d="M115.21879,101.2393c-.129-.0098-.2999-.0332-.5147-.0713a.53655.53655,0,0,1-.293-.2159,1.84725,1.84725,0,0,1-.1074-.7685V97.8555h-.4521v-.5957h.4521V96.1387h.834v1.1211h.582v.5957h-.582v2.0547q0,.5112.07031.5752c0,.1005.17089.1367.51169.1074v.625Z" transform="translate(-13.16422 -28.3016)"/><path class="cls-3" d="M116.28709,96.4473a.56213.56213,0,0,1,.1504-.3985.4858.4858,0,0,1,.7227,0,.57238.57238,0,0,1,.1464.3985.5622.5622,0,0,1-.1464.3916.4838.4838,0,0,1-.7227,0A.55225.55225,0,0,1,116.28709,96.4473Zm.9053,4.7705h-.8262V97.374a1.84363,1.84363,0,0,0,.4522.0723,1.037,1.037,0,0,0,.374-.0723Z" transform="translate(-13.16422 -28.3016)"/><path class="cls-3" d="M120.60449,101.2178h-.8262V98.4092q0-.561-.4521-.5606-.54645,0-.5459.6612v2.708h-.834V97.3027h.80471v.3233a1.04857,1.04857,0,0,1,.87689-.374q.9771,0,.9766,1.0136Z" transform="translate(-13.16422 -28.3016)"/><path class="cls-3" d="M123.97359,101.2178h-.8047v-.3233a1.04107,1.04107,0,0,1-.873.3955.87159.87159,0,0,1-.9727-.999V97.3027h.8262v2.7442a1.11734,1.11734,0,0,0,.0645.4453.38485.38485,0,0,0,.3808.2012q.5523,0,.5528-.6748V97.3027h.8261Z" transform="translate(-13.16422 -28.3016)"/><path class="cls-3" d="M124.62009,99.2715a2.36922,2.36922,0,0,1,.50291-1.624,1.29985,1.29985,0,0,1,1.01269-.4307,1.24911,1.24911,0,0,1,1.0137.4092,2.53265,2.53265,0,0,1,.4238,1.6455,2.39169,2.39169,0,0,1-.48819,1.666,1.248,1.248,0,0,1-.94931.3887,1.39547,1.39547,0,0,1-.9336-.3164A2.15,2.15,0,0,1,124.62009,99.2715Zm.8623.0283a3.07253,3.07253,0,0,0,.1367,1.0703.53151.53151,0,0,0,.5245.3662q.65325,0,.6533-1.4365,0-1.51605-.6533-1.5156Q125.496,97.7842,125.48239,99.2998Z" transform="translate(-13.16422 -28.3016)"/><path class="cls-3" d="M130.90629,101.2178h-.8047v-.3233a1.04139,1.04139,0,0,1-.8731.3955.87152.87152,0,0,1-.9726-.999V97.3027h.82611v2.7442a1.11737,1.11737,0,0,0,.06449.4453.38485.38485,0,0,0,.3808.2012q.5523,0,.5528-.6748V97.3027h.8262Z" transform="translate(-13.16422 -28.3016)"/><path class="cls-3" d="M131.66109,99.9395h.7686a1.24381,1.24381,0,0,0-.0215.1933c0,.4317.1631.6465.4912.6465a.65642.65642,0,0,0,.5498-.1787.63685.63685,0,0,0,.0791-.374c0-.2774-.167-.4766-.5029-.5967q-.876-.30765-.9268-.3447a1.17719,1.17719,0,0,1-.4951-1.0772.89992.89992,0,0,1,.4024-.7832,1.4496,1.4496,0,0,1,.8613-.2441q1.19385,0,1.1933,1.2998h-.7119a4.79492,4.79492,0,0,0-.0713-.4815.386.386,0,0,0-.40229-.2363.4568.4568,0,0,0-.32321.1357.43364.43364,0,0,0-.1436.3233.59.59,0,0,0,.46681.5683,8.90938,8.90938,0,0,1,.88379.337,1.2168,1.2168,0,0,1,.4668,1.0849,1.03682,1.03682,0,0,1-.3662.8477,1.46689,1.46689,0,0,1-.9629.3017Q131.66019,101.3613,131.66109,99.9395Z" transform="translate(-13.16422 -28.3016)"/><path class="cls-3" d="M104.26069,109.0557h-.8984v-5.0791h.8984Z" transform="translate(-13.16422 -28.3016)"/><path class="cls-3" d="M109.44039,109.0557h-.8261v-2.6524a.93583.93583,0,0,0-.1084-.4521.39526.39526,0,0,0-.3584-.251.43521.43521,0,0,0-.39549.2295.87307.87307,0,0,0-.12211.4736v2.6524h-.8262v-2.6524a.94076.94076,0,0,0-.1152-.4521.413.413,0,0,0-.3516-.251q-.517,0-.5176.7031v2.6524h-.833v-3.9161h.80471v.3233a.57372.57372,0,0,1,.55179-.3731.94991.94991,0,0,1,.8965.4454,1.09458,1.09458,0,0,1,.9101-.4454,1.36264,1.36264,0,0,1,1.291,1.3077Z" transform="translate(-13.16422 -28.3016)"/><path class="cls-3" d="M112.67189,105.8008a4.58647,4.58647,0,0,1,.1592,1.4228,3.6242,3.6242,0,0,1-.1592,1.25.95432.95432,0,0,1-.9698.6465,1.14071,1.14071,0,0,1-.8828-.3086v1.3506h-.747V105.082h.747v.3243a1.03243,1.03243,0,0,1,.7823-.3594A1.04916,1.04916,0,0,1,112.67189,105.8008Zm-.6885,2.3711a2.324,2.324,0,0,0,.1299-.9483q0-1.56585-.6826-1.5947-.61095-.0219-.6114,1.041c0,.0821.003.1856.0078.3125s.00691.208.00691.2412a3.748,3.748,0,0,0,.05079.7539c.0713.3262.2343.4883.48821.4883A.62792.62792,0,0,0,111.98339,108.1719Z" transform="translate(-13.16422 -28.3016)"/><path class="cls-3" d="M115.65429,106.4766h-.8691a1.29484,1.29484,0,0,0,.1005-.4493.28432.28432,0,0,0-.3154-.3271q-.34575,0-.3457.9824v2.3731h-.833v-3.9161h.8047v.3379a.83271.83271,0,0,1,.7109-.3877q.769,0,.7686.9336c0,.0772-.0029.167-.01079.2696C115.65819,106.3965,115.65429,106.457,115.65429,106.4766Z" transform="translate(-13.16422 -28.3016)"/><path class="cls-3" d="M116.14359,107.1084a2.36184,2.36184,0,0,1,.5029-1.624,1.297,1.297,0,0,1,1.0127-.4307,1.25008,1.25008,0,0,1,1.0127.4092,2.52838,2.52838,0,0,1,.4238,1.6455,2.38785,2.38785,0,0,1-.4883,1.667,1.2446,1.2446,0,0,1-.9482.3877,1.39348,1.39348,0,0,1-.9336-.3164A2.1446,2.1446,0,0,1,116.14359,107.1084Zm.8613.0283a3.079,3.079,0,0,0,.1367,1.0713.53161.53161,0,0,0,.52441.3662q.65474,0,.65429-1.4375,0-1.51455-.65429-1.5156Q117.02009,105.6211,117.00489,107.1367Z" transform="translate(-13.16422 -28.3016)"/><path class="cls-3" d="M121.58889,105.1396h.82611l-1.042,3.9161h-.91891l-1.0498-3.9161h.8486l.6602,2.8165Z" transform="translate(-13.16422 -28.3016)"/><path class="cls-3" d="M123.56449,107.1152q-.05715,1.30815.6103,1.3077.63285,0,.6826-.6827h.7764a1.739,1.739,0,0,1-.1436.7041,1.32216,1.32216,0,0,1-1.3154.712,1.24434,1.24434,0,0,1-1.2861-.9415,5.30652,5.30652,0,0,1-.1504-1.5019,1.97529,1.97529,0,0,1,.2871-1.0557,1.263,1.263,0,0,1,1.1494-.6318,1.29849,1.29849,0,0,1,1.3154.7041,3.402,3.402,0,0,1,.1719,1.3857Zm.6103-1.4795q-.6108,0-.6103,1.0127h1.3437Q124.86424,105.6362,124.17479,105.6357Z" transform="translate(-13.16422 -28.3016)"/><path class="cls-3" d="M130.68359,109.0557h-.8262v-2.6524a.93428.93428,0,0,0-.10739-.4521.39646.39646,0,0,0-.35941-.251.4349.4349,0,0,0-.3945.2295.86568.86568,0,0,0-.12309.4736v2.6524h-.82611v-2.6524a.95.95,0,0,0-.1143-.4521.41413.41413,0,0,0-.3525-.251q-.517,0-.5166.7031v2.6524h-.834v-3.9161h.8047v.3233a.57453.57453,0,0,1,.5517-.3731.94889.94889,0,0,1,.8965.4454,1.09518,1.09518,0,0,1,.9112-.4454,1.36082,1.36082,0,0,1,1.29,1.3077Z" transform="translate(-13.16422 -28.3016)"/><path class="cls-3" d="M132.01269,107.1152q-.05715,1.30815.61131,1.3077.63134,0,.68259-.6827h.77541a1.74084,1.74084,0,0,1-.14351.7041,1.32,1.32,0,0,1-1.31449.712,1.24442,1.24442,0,0,1-1.28611-.9415,5.298,5.298,0,0,1-.1514-1.5019,1.97591,1.97591,0,0,1,.2881-1.0557,1.263,1.263,0,0,1,1.14941-.6318,1.29707,1.29707,0,0,1,1.31449.7041,3.39864,3.39864,0,0,1,.1728,1.3857Zm.61131-1.4795q-.61081,0-.61131,1.0127h1.3437Q133.31394,105.6362,132.624,105.6357Z" transform="translate(-13.16422 -28.3016)"/><path class="cls-3" d="M137.33689,109.0557h-.8262v-2.8096c0-.3731-.1513-.5606-.4531-.5606q-.5463,0-.5459.6612v2.709h-.833v-3.9161h.8047v.3233a1.0474,1.0474,0,0,1,.876-.3731.88017.88017,0,0,1,.9775,1.0127Z" transform="translate(-13.16422 -28.3016)"/><path class="cls-3" d="M139.24319,109.0771a5.15108,5.15108,0,0,1-.5147-.0722.5343.5343,0,0,1-.2939-.2149,1.85677,1.85677,0,0,1-.1065-.7695v-2.3271H137.875v-.5967h.45309v-1.1201h.833v1.1201h.5821v.5967h-.5821v2.0546q0,.50985.0713.5743,0,.1509.5108.1084v.625Z" transform="translate(-13.16422 -28.3016)"/><path class="cls-3" d="M97.64159,153.4844l-.999,5.0791h-1.0147l-.6758-3.1045c-.0302-.1436-.0644-.3018-.1035-.4736-.0273.1347-.05759.2929-.0898.4755l-.6895,3.1026h-.9257l-.9629-5.0791h.8486l.4756,2.5078c.039.206.0859.4639.1396.7754q.07335-.331.1534-.7041l.6103-2.5791H95.457l.43849,1.9385q.15377.6972.2441,1.3427l.169-.8252.5273-2.456Z" transform="translate(-13.16422 -28.3016)"/><path class="cls-3" d="M98.63959,156.623q-.057,1.30815.61041,1.3077.63284,0,.68259-.6827h.77641a1.73877,1.73877,0,0,1-.14361.7041,1.322,1.322,0,0,1-1.31539.712,1.24436,1.24436,0,0,1-1.28611-.9414,5.30781,5.30781,0,0,1-.1504-1.502,1.9752,1.9752,0,0,1,.2871-1.0557,1.263,1.263,0,0,1,1.14941-.6318,1.29849,1.29849,0,0,1,1.31539.7041,3.40186,3.40186,0,0,1,.1719,1.3857Zm.61041-1.4794q-.61082,0-.61041,1.0127h1.3438Q99.93944,155.144,99.25,155.1436Z" transform="translate(-13.16422 -28.3016)"/><path class="cls-3" d="M105.623,158.5635h-2.59371v-5.0791h.8984v4.4541H105.623Z" transform="translate(-13.16422 -28.3016)"/><path class="cls-3" d="M105.95309,153.793a.56141.56141,0,0,1,.1514-.3985.48269.48269,0,0,1,.7217,0,.56709.56709,0,0,1,.1474.3985.56006.56006,0,0,1-.1474.3916.48468.48468,0,0,1-.7217,0A.55463.55463,0,0,1,105.95309,153.793Zm.9053,4.7705h-.8262v-3.8438a1.84216,1.84216,0,0,0,.4532.0713,1.03024,1.03024,0,0,0,.373-.0713Z" transform="translate(-13.16422 -28.3016)"/><path class="cls-3" d="M107.62009,157.2842h.7686a1.26612,1.26612,0,0,0-.0215.1943q0,.64605.4922.6465a.65092.65092,0,0,0,.5488-.1797.62512.62512,0,0,0,.0801-.373c0-.2784-.168-.4766-.5029-.5967q-.8775-.30915-.9268-.3447a1.17829,1.17829,0,0,1-.4961-1.0782.90136.90136,0,0,1,.4023-.7832,1.462,1.462,0,0,1,.8623-.2441q1.1925,0,1.1924,1.3008h-.7109a4.6006,4.6006,0,0,0-.0723-.4815.38553.38553,0,0,0-.40229-.2373.45969.45969,0,0,0-.32331.1367.43216.43216,0,0,0-.1435.3233.58917.58917,0,0,0,.46681.5674,8.77239,8.77239,0,0,1,.88379.3379,1.21329,1.21329,0,0,1,.4668,1.0849,1.03682,1.03682,0,0,1-.3662.8477,1.46689,1.46689,0,0,1-.9629.3017Q107.62054,158.707,107.62009,157.2842Z" transform="translate(-13.16422 -28.3016)"/><path class="cls-3" d="M111.97659,158.585a5.15639,5.15639,0,0,1-.5147-.0723.5341.5341,0,0,1-.29389-.2148,1.85744,1.85744,0,0,1-.10651-.7696v-2.3271h-.4531v-.5967h.4531v-1.1201h.833v1.1201h.5821v.5967h-.5821v2.0547q0,.5097.0713.5742,0,.1509.5108.1084v.625Z" transform="translate(-13.16422 -28.3016)"/><path class="cls-3" d="M113.88479,156.623q-.05715,1.30815.6103,1.3077.63286,0,.6826-.6827h.7764a1.73861,1.73861,0,0,1-.1436.7041,1.322,1.322,0,0,1-1.3154.712,1.24442,1.24442,0,0,1-1.28609-.9414,5.30735,5.30735,0,0,1-.15041-1.502,1.9752,1.9752,0,0,1,.2871-1.0557,1.263,1.263,0,0,1,1.1494-.6318,1.29841,1.29841,0,0,1,1.3154.7041,3.40028,3.40028,0,0,1,.1719,1.3857Zm.6103-1.4794q-.6108,0-.6103,1.0127h1.3437Q115.18454,155.144,114.49509,155.1436Z" transform="translate(-13.16422 -28.3016)"/><path class="cls-3" d="M119.208,158.5635h-.82621v-2.8096c0-.373-.1504-.5605-.4521-.5605q-.54645,0-.5459.6611v2.709h-.834v-3.916h.8047v.3232a1.048,1.048,0,0,1,.8769-.373q.9771,0,.97661,1.0127Z" transform="translate(-13.16422 -28.3016)"/><path class="cls-3" d="M120.65919,159.0088a1.18457,1.18457,0,0,1-.40919.3447l-.18751-.2109a.67016.67016,0,0,0,.2197-.2246.61034.61034,0,0,0,.0899-.2832h-.0215v.0215a.21413.21413,0,0,0,.043-.0713c0-.0147-.0118-.0215-.0362-.0215a.47372.47372,0,0,1-.35939-.1651.56657.56657,0,0,1-.15031-.3955.55257.55257,0,0,1,.15031-.3916.48379.48379,0,0,1,.72269,0,.56183.56183,0,0,1,.1465.3916q0,.4746-.0068.5098c-.043.1484-.06939.2373-.0791.2656A1.30528,1.30528,0,0,1,120.65919,159.0088Z" transform="translate(-13.16422 -28.3016)"/><path class="cls-3" d="M97.64159,161.3213l-.999,5.0791h-1.0147l-.6758-3.1045c-.0302-.1436-.0644-.3008-.1035-.4736-.0273.1347-.05759.2929-.0898.4756l-.6895,3.1025h-.9257l-.9629-5.0791h.8486l.4756,2.5088q.0585.30765.1396.7754.07335-.33105.1534-.7051l.6103-2.5791H95.457l.43849,1.9385q.15377.6972.2441,1.3437l.169-.8262.5273-2.456Z" transform="translate(-13.16422 -28.3016)"/><path class="cls-3" d="M98.63959,164.4609q-.057,1.30815.61041,1.3077.63284,0,.68259-.6827h.77641a1.73877,1.73877,0,0,1-.14361.7041,1.32287,1.32287,0,0,1-1.31539.711,1.24453,1.24453,0,0,1-1.28611-.9405,5.31129,5.31129,0,0,1-.1504-1.5019,1.97273,1.97273,0,0,1,.2871-1.0557,1.26384,1.26384,0,0,1,1.14941-.6328,1.29849,1.29849,0,0,1,1.31539.7041,3.41019,3.41019,0,0,1,.1719,1.3867Zm.61041-1.4804q-.61082,0-.61041,1.0136h1.3438Q99.93944,162.98055,99.25,162.9805Z" transform="translate(-13.16422 -28.3016)"/><path class="cls-3" d="M105.48629,164.6836h.9053a2.39076,2.39076,0,0,1-.4023,1.3008,1.49384,1.49384,0,0,1-1.2432.4883,2.02263,2.02263,0,0,1-1.3213-.3526,1.44793,1.44793,0,0,1-.4463-.9424,13.48985,13.48985,0,0,1-.043-1.3818,4.17733,4.17733,0,0,1,.2666-1.7764,1.56941,1.56941,0,0,1,1.5518-.7627,2.6478,2.6478,0,0,1,.8399.1289,1.01105,1.01105,0,0,1,.6396.5176,1.65434,1.65434,0,0,1,.10061.4024c.03319.2011.05959.3349.07909.4023h-.8545a.41147.41147,0,0,1-.0147-.1152.95152.95152,0,0,0-.04289-.2442.53228.53228,0,0,0-.32331-.3515.9687.9687,0,0,0-.4384-.1084.65022.65022,0,0,0-.6651.4209,6.62027,6.62027,0,0,0-.1689,1.9258,6.52788,6.52788,0,0,0,.0439,1.0078.63745.63745,0,0,0,.6533.5898.931.931,0,0,0,.5889-.1514.67809.67809,0,0,0,.1943-.4121C105.41889,165.0762,105.45309,164.8809,105.48629,164.6836Z" transform="translate(-13.16422 -28.3016)"/><path class="cls-3" d="M107.68749,163.6709h-.8008a1.23235,1.23235,0,0,1,.3526-.9697,1.57779,1.57779,0,0,1,1.01271-.2666,1.17423,1.17423,0,0,1,1.01359.3447,2.24786,2.24786,0,0,1,.1787,1.1064v1.4444a3.6949,3.6949,0,0,0,.0938,1.0703h-.711a1.09073,1.09073,0,0,1-.0576-.294,1.30469,1.30469,0,0,1-1.0127.337.91214.91214,0,0,1-.75479-.3301,1.26653,1.26653,0,0,1-.23741-.8047.99581.99581,0,0,1,.3467-.833,2.16291,2.16291,0,0,1,.76471-.3164,3.43031,3.43031,0,0,0,.81439-.2871v-.2666a1.557,1.557,0,0,0-.0293-.4737c-.0478-.081-.1943-.122-.4394-.122a.461.461,0,0,0-.4258.1865A1.509,1.509,0,0,0,107.68749,163.6709Zm.3662,2.2266q.6372,0,.6367-.9405v-.209c-.0049-.0908-.0068-.1533-.0068-.1865q-.35445.107-.709.2158a.56537.56537,0,0,0-.4053.5313C107.56929,165.7012,107.73139,165.8975,108.05369,165.8975Z" transform="translate(-13.16422 -28.3016)"/><path class="cls-3" d="M112.47659,163.8213h-.8692a1.31635,1.31635,0,0,0,.10061-.4483.28425.28425,0,0,0-.31641-.3271q-.34425,0-.3447.9814v2.3731h-.833v-3.915h.8037v.3378a.83649.83649,0,0,1,.7119-.3886q.769,0,.76851.9345c0,.0762-.00391.1661-.01071.2696C112.48049,163.7412,112.47659,163.8027,112.47659,163.8213Z" transform="translate(-13.16422 -28.3016)"/><path class="cls-3" d="M113.82709,164.4609q-.057,1.30815.6104,1.3077.63285,0,.6826-.6827h.7764a1.73861,1.73861,0,0,1-.1436.7041,1.32288,1.32288,0,0,1-1.3154.711,1.24452,1.24452,0,0,1-1.2861-.9405,5.31137,5.31137,0,0,1-.15039-1.5019,1.97273,1.97273,0,0,1,.28709-1.0557,1.26383,1.26383,0,0,1,1.1494-.6328,1.29849,1.29849,0,0,1,1.3154.7041,3.41037,3.41037,0,0,1,.1719,1.3867Zm.6104-1.4804q-.6108,0-.6104,1.0136h1.3438Q115.12694,162.98055,114.43749,162.9805Z" transform="translate(-13.16422 -28.3016)"/><path class="cls-3" d="M117.22559,166.8457a1.17781,1.17781,0,0,1-.4102.3447l-.1865-.2099a.67758.67758,0,0,0,.2188-.2246.60343.60343,0,0,0,.0898-.2832H116.916v.0214a.19577.19577,0,0,0,.043-.0722c0-.0137-.01171-.0215-.03521-.0215a.46878.46878,0,0,1-.3593-.165.56753.56753,0,0,1-.1514-.3956.55633.55633,0,0,1,.1514-.3916.48457.48457,0,0,1,.7216,0,.56141.56141,0,0,1,.1475.3916c0,.3165-.0029.4864-.0068.5108-.044.1484-.0704.2373-.0791.2656A1.35928,1.35928,0,0,1,117.22559,166.8457Z" transform="translate(-13.16422 -28.3016)"/><path class="cls-3" d="M97.64159,169.1592l-.999,5.0791h-1.0147l-.6758-3.1045c-.0302-.1436-.0644-.3018-.1035-.4736-.0273.1347-.05759.2929-.0898.4755l-.6895,3.1026h-.9257l-.9629-5.0791h.8486l.4756,2.5078c.039.206.0859.4639.1396.7754q.07335-.331.1534-.7041l.6103-2.5791H95.457l.43849,1.9385q.15377.6972.2441,1.3427l.169-.8252.5273-2.456Z" transform="translate(-13.16422 -28.3016)"/><path class="cls-3" d="M98.63959,172.2979q-.057,1.308.61041,1.3076.63284,0,.68259-.6826h.77641a1.7395,1.7395,0,0,1-.14361.7041,1.32208,1.32208,0,0,1-1.31539.7119,1.24436,1.24436,0,0,1-1.28611-.9414,5.30781,5.30781,0,0,1-.1504-1.502,1.9752,1.9752,0,0,1,.2871-1.0557A1.263,1.263,0,0,1,99.25,170.208a1.29849,1.29849,0,0,1,1.31539.7041,3.40241,3.40241,0,0,1,.1719,1.3858Zm.61041-1.4795q-.61082,0-.61041,1.0127h1.3438Q99.93944,170.8189,99.25,170.8184Z" transform="translate(-13.16422 -28.3016)"/><path class="cls-3" d="M104.53809,169.7334a.7736.7736,0,0,0-.4453.1221.44929.44929,0,0,0-.2012.3965.81277.81277,0,0,0,.5889.7841q1.0341.4029,1.0918.4463a1.63509,1.63509,0,0,1,.5966,1.4317q0,1.3959-1.5664,1.3955a1.48693,1.48693,0,0,1-1.207-.3897,2.32777,2.32777,0,0,1-.2871-1.2763l.9482.0351q-.0498.95655.5176.9561a.65839.65839,0,0,0,.5674-.209,1.08582,1.08582,0,0,0,.1289-.6113q0-.44685-.582-.7491-1.0767-.56835-1.085-.582a1.42609,1.42609,0,0,1-.5889-1.209,1.02191,1.02191,0,0,1,.4815-.9209,2.4652,2.4652,0,0,1,2.0977-.0508,1.61964,1.61964,0,0,1,.4531,1.3643h-.877a2.02029,2.02029,0,0,0-.0644-.6465Q104.98384,169.7334,104.53809,169.7334Z" transform="translate(-13.16422 -28.3016)"/><path class="cls-3" d="M107.498,172.2979q-.057,1.308.61039,1.3076.63285,0,.68261-.6826h.77639a1.741,1.741,0,0,1-.1436.7041,1.3221,1.3221,0,0,1-1.3154.7119,1.24437,1.24437,0,0,1-1.2861-.9414,5.30781,5.30781,0,0,1-.1504-1.502,1.97512,1.97512,0,0,1,.28711-1.0557,1.263,1.263,0,0,1,1.14939-.6318,1.29848,1.29848,0,0,1,1.3154.7041,3.40259,3.40259,0,0,1,.1719,1.3858Zm.61039-1.4795q-.6108,0-.61039,1.0127h1.34379Q108.79784,170.8189,108.10839,170.8184Z" transform="translate(-13.16422 -28.3016)"/><path class="cls-3" d="M112.43359,171.6592h-.8691a1.31589,1.31589,0,0,0,.10051-.4492.28464.28464,0,0,0-.31641-.3272q-.34425,0-.3447.9824v2.3731h-.833v-3.916h.8037v.3379a.83536.83536,0,0,1,.7119-.3877q.769,0,.7686.9336c0,.0771-.0039.1669-.0108.2695C112.43749,171.5791,112.43359,171.6396,112.43359,171.6592Z" transform="translate(-13.16422 -28.3016)"/><path class="cls-3" d="M114.99119,170.3223h.8262l-1.042,3.916h-.919l-1.0498-3.916h.8487l.6601,2.8164Z" transform="translate(-13.16422 -28.3016)"/><path class="cls-3" d="M116.96679,172.2979q-.05715,1.308.6103,1.3076.63286,0,.6827-.6826h.7763a1.73937,1.73937,0,0,1-.1435.7041,1.32234,1.32234,0,0,1-1.3155.7119,1.24449,1.24449,0,0,1-1.28609-.9414,5.30735,5.30735,0,0,1-.15041-1.502,1.9752,1.9752,0,0,1,.2871-1.0557,1.263,1.263,0,0,1,1.1494-.6318,1.29855,1.29855,0,0,1,1.3155.7041,3.40435,3.40435,0,0,1,.1719,1.3858Zm.6103-1.4795q-.6108,0-.6103,1.0127h1.3437Q118.26669,170.8189,117.57709,170.8184Z" transform="translate(-13.16422 -28.3016)"/><path class="cls-4" d="M76.82179,77.8994a5.596,5.596,0,0,1,1.0176-3.5869,2.7049,2.7049,0,0,1,2.1591-.9551,2.76166,2.76166,0,0,1,2.2461.9053,5.61572,5.61572,0,0,1,.9307,3.6367,5.27521,5.27521,0,0,1-1.0796,3.6856,2.75593,2.75593,0,0,1-2.0972.8681,2.828,2.828,0,0,1-1.9731-.707Q76.784,80.64165,76.82179,77.8994Zm1.3896.0684Q78.174,81.337,80.042,81.3359a1.47368,1.47368,0,0,0,1.29489-.7705,5.04263,5.04263,0,0,0,.5352-2.5976,5.87366,5.87366,0,0,0-.4795-2.5928,1.42487,1.42487,0,0,0-2.6958,0A6.05053,6.05053,0,0,0,78.21139,77.9678Z" transform="translate(-13.16422 -28.3016)"/><path class="cls-4" d="M87.59279,82.2549H86.042V75.6152a6.35836,6.35836,0,0,1-1.37791.6084v-1.166a2.89377,2.89377,0,0,0,1.0615-.6211,2.06036,2.06036,0,0,0,.65141-.9804h1.21579Z" transform="translate(-13.16422 -28.3016)"/><path class="cls-5" d="M94.76329,78.3235a12.31445,12.31445,0,1,0-12.3139,12.3149A12.31434,12.31434,0,0,0,94.76329,78.3235Z" transform="translate(-13.16422 -28.3016)"/><path class="cls-4" d="M119.85739,127.9805a5.59294,5.59294,0,0,1,1.01761-3.586,2.70258,2.70258,0,0,1,2.15919-.956,2.76283,2.76283,0,0,1,2.2461.9062,5.61308,5.61308,0,0,1,.9306,3.6358,5.27473,5.27473,0,0,1-1.08,3.6855,2.75511,2.75511,0,0,1-2.0967.8692,2.83023,2.83023,0,0,1-1.9737-.7081Q119.81984,130.72265,119.85739,127.9805Zm1.3897.0683q-.0381,3.36915,1.83,3.3692a1.47358,1.47358,0,0,0,1.295-.7705,5.04578,5.04578,0,0,0,.5351-2.5987,5.862,5.862,0,0,0-.4795-2.5918,1.42409,1.42409,0,0,0-2.6953,0A6.04021,6.04021,0,0,0,121.24709,128.0488Z" transform="translate(-13.16422 -28.3016)"/><path class="cls-4" d="M128.85349,126.4541h-1.5264a3.27629,3.27629,0,0,1,.6084-2.085,2.401,2.401,0,0,1,2.0098-.8681,2.27863,2.27863,0,0,1,1.7998.626,2.88057,2.88057,0,0,1,.54591,1.9296,3.50806,3.50806,0,0,1-.65721,1.7627,18.225,18.225,0,0,1-1.3652,1.837q-.9801,1.20255-1.2413,1.6005H132.291v1.0791h-5.05081l.04981-.9677a3.34944,3.34944,0,0,1,.94339-1.5264q1.4151-1.626,1.6504-1.9482a3.999,3.999,0,0,0,.8808-2.2334,1.15125,1.15125,0,0,0-.22359-.7325.7551.7551,0,0,0-.63281-.2851Q129.33834,124.6426,128.85349,126.4541Z" transform="translate(-13.16422 -28.3016)"/><path class="cls-5" d="M138.52209,128.405a12.315,12.315,0,1,0-12.3144,12.3149A12.31424,12.31424,0,0,0,138.52209,128.405Z" transform="translate(-13.16422 -28.3016)"/><path class="cls-4" d="M70.18309,170.4531a5.59548,5.59548,0,0,1,1.0176-3.5859,2.7027,2.7027,0,0,1,2.1592-.9561,2.76239,2.76239,0,0,1,2.24611.9063,5.61264,5.61264,0,0,1,.93059,3.6357,5.27477,5.27477,0,0,1-1.07959,3.6856,2.7567,2.7567,0,0,1-2.09711.8691,2.82871,2.82871,0,0,1-1.9732-.708Q70.14529,173.19535,70.18309,170.4531Zm1.3897.0684q-.03735,3.36915,1.8305,3.3691a1.47369,1.47369,0,0,0,1.2949-.7705,5.04449,5.04449,0,0,0,.5352-2.5986,5.86892,5.86892,0,0,0-.4795-2.5918,1.42439,1.42439,0,0,0-2.6958,0A6.04726,6.04726,0,0,0,71.57279,170.5215Z" transform="translate(-13.16422 -28.3016)"/><path class="cls-4" d="M80.082,173.8037a.9077.9077,0,0,0,.89649-.7832,5.28807,5.28807,0,0,0,.12451-1.3428q0-1.18065-1.60061-1.1806v-.6221a2.44085,2.44085,0,0,0,1.14161-.8828,2.06136,2.06136,0,0,0,.273-1.1309.71371.71371,0,0,0-.24811-.5722.90678.90678,0,0,0-.6084-.211.76073.76073,0,0,0-.8188.6074q-.06225.57135-.1118,1.1299l-1.4146-.0869a3.40306,3.40306,0,0,1,.4839-1.998,2.21053,2.21053,0,0,1,1.8862-.7569q2.34525,0,2.3458,2.5352a1.59914,1.59914,0,0,1-1.0923,1.5898,1.55607,1.55607,0,0,1,1.0298,1.0323,3.957,3.957,0,0,1,.2856,1.54,2.098,2.098,0,0,1-.7446,1.7031,2.77892,2.77892,0,0,1-1.7993.5586,2.16093,2.16093,0,0,1-1.98539-1.0293,4.00755,4.00755,0,0,1-.49661-2.122l1.457-.0752q.0873.5214.1744,1.0429Q79.54614,173.80365,80.082,173.8037Z" transform="translate(-13.16422 -28.3016)"/><path class="cls-5" d="M88.85019,170.8781a12.3154,12.3154,0,1,0-12.3134,12.3145A12.31208,12.31208,0,0,0,88.85019,170.8781Z" transform="translate(-13.16422 -28.3016)"/><path class="cls-4" d="M26.91549,122.4229a5.59714,5.59714,0,0,1,1.0176-3.587,2.70488,2.70488,0,0,1,2.1592-.955,2.76159,2.76159,0,0,1,2.2461.9052,5.61608,5.61608,0,0,1,.93061,3.6368,5.27476,5.27476,0,0,1-1.07951,3.6855,2.75616,2.75616,0,0,1-2.0972.8682,2.82827,2.82827,0,0,1-1.9732-.7071Q26.87769,125.16505,26.91549,122.4229Zm1.3897.0683q-.03735,3.36915,1.8305,3.3682a1.47415,1.47415,0,0,0,1.295-.7705,5.04416,5.04416,0,0,0,.5351-2.5977,5.87254,5.87254,0,0,0-.4795-2.5928,1.42487,1.42487,0,0,0-2.6958,0A6.05249,6.05249,0,0,0,28.30519,122.4912Z" transform="translate(-13.16422 -28.3016)"/><path class="cls-4" d="M39.87059,125.2021h-1.0547v1.5762h-1.5141v-1.5762h-3.1641v-1.1289l2.8789-6.0683h1.7993v6.0303h1.0547Zm-2.5688-1.1669v-3.7081l-1.7456,3.7081Z" transform="translate(-13.16422 -28.3016)"/><path class="cls-5" d="M45.58269,122.8474a12.315,12.315,0,1,0-12.3155,12.3144A12.31522,12.31522,0,0,0,45.58269,122.8474Z" transform="translate(-13.16422 -28.3016)"/><path class="cls-6" d="M29.24369,38.9238h2.727a7.18308,7.18308,0,0,1-1.2119,3.917,4.49428,4.49428,0,0,1-3.7442,1.4717,6.1064,6.1064,0,0,1-3.9814-1.0615,4.36126,4.36126,0,0,1-1.3418-2.8389,40.22362,40.22362,0,0,1-.1299-4.1611,12.62094,12.62094,0,0,1,.8008-5.3526q1.1682-2.2968,4.6743-2.2968a7.95613,7.95613,0,0,1,2.5318.3896,3.047,3.047,0,0,1,1.9262,1.5576,4.9217,4.9217,0,0,1,.3028,1.2119q.15075.90975.2382,1.212h-2.5752a1.24783,1.24783,0,0,1-.04339-.3457,2.83,2.83,0,0,0-.12991-.7364,1.60282,1.60282,0,0,0-.9736-1.0605,2.932,2.932,0,0,0-1.3203-.3242,1.954,1.954,0,0,0-2.0015,1.2685,19.87857,19.87857,0,0,0-.5088,5.7988,20.02669,20.02669,0,0,0,.1299,3.0352A1.92306,1.92306,0,0,0,26.582,42.3867a2.79434,2.79434,0,0,0,1.77439-.458,2.039,2.039,0,0,0,.5845-1.2412Q29.09179,39.81735,29.24369,38.9238Z" transform="translate(-13.16422 -28.3016)"/><path class="cls-6" d="M33.29,36.5322q.06523-4.2348,1.77489-6.2451a4.70641,4.70641,0,0,1,3.7652-1.6426,4.84811,4.84811,0,0,1,3.917,1.5567q1.623,1.9014,1.623,6.331,0,4.3872-1.8828,6.3975a4.84234,4.84234,0,0,1-3.6572,1.4912,4.93837,4.93837,0,0,1-3.4409-1.2109Q33.22484,41.26615,33.29,36.5322Zm2.77009.1084q-.0432,5.52975,2.8134,5.5293a2.21439,2.21439,0,0,0,1.9693-1.2744,8.71408,8.71408,0,0,0,.82221-4.2549,10.16162,10.16162,0,0,0-.73581-4.2226,2.13345,2.13345,0,0,0-4.1333.0322A10.29515,10.29515,0,0,0,36.06009,36.6406Z" transform="translate(-13.16422 -28.3016)"/><path class="cls-6" d="M49.56349,36.8896v7.2061h-2.7481V28.7959h5.3882a6.11107,6.11107,0,0,1,2.77.541,2.90134,2.90134,0,0,1,1.3633,1.7715,6.66226,6.66226,0,0,1,.2818,2.0527q0,2.6163-3.11669,3.2198a3.705,3.705,0,0,1,1.19039.6269,3.41251,3.41251,0,0,1,1.2768,2.0313l.3247,1.4267a6.10554,6.10554,0,0,0,.51911,2.2471,4.45516,4.45516,0,0,0,.71429,1.3828l-2.8349-.0215a2.85661,2.85661,0,0,1-1.1255-1.9629q-.10845-.36765-.4976-2.956a3.12542,3.12542,0,0,0-1.2334-1.4893A3.6575,3.6575,0,0,0,49.56349,36.8896Zm0-6.2539v4.5664a21.592,21.592,0,0,0,2.3803-.0654,1.90166,1.90166,0,0,0,1.753-.8222,1.40411,1.40411,0,0,0,.2168-.7579,8.87023,8.87023,0,0,0-.1084-1.125,2.893,2.893,0,0,0-.2598-1.039,1.74776,1.74776,0,0,0-1.2549-.6055,9.31989,9.31989,0,0,0-1.3203-.1084Q49.84444,30.63625,49.56349,30.6357Z" transform="translate(-13.16422 -28.3016)"/><path class="cls-6" d="M68.23929,44.0957h-8.8291V28.7959h8.6342v1.8828h-5.9292v4.3936h5.4966v1.8388h-5.4966v5.3018h6.1241Z" transform="translate(-13.16422 -28.3016)"/><path class="cls-6" d="M82.95749,28.7959h2.7017l-3.8736,15.2998h-3.311l-3.852-15.2998H77.166l2.86529,12.2656Z" transform="translate(-13.16422 -28.3016)"/><path class="cls-6" d="M95.59179,44.0957h-2.5381l-1.1221-4.3496h-3.7841l-1.0733,4.3496h-2.7998l4.0899-15.2998h2.9648Zm-5.6035-12.1582-1.3994,5.9043h2.8916Z" transform="translate(-13.16422 -28.3016)"/><path class="cls-6" d="M105.50289,44.0957h-7.8115V28.7959h2.7051v13.417h5.1064Z" transform="translate(-13.16422 -28.3016)"/><path class="cls-6" d="M116.97269,39.6963a4.53344,4.53344,0,0,1-.8438,2.7959,4.22252,4.22252,0,0,1-1.5146,1.3213,5.73879,5.73879,0,0,1-2.53229.499q-3.44087,0-4.43651-2.0811a5.797,5.797,0,0,1-.4756-2.5351V28.7959H109.875V39.7852q0,1.77825.93459,2.2763a2.50719,2.50719,0,0,0,1.1748.2598,2.12459,2.12459,0,0,0,1.8047-.7149,5.55618,5.55618,0,0,0,.3047-1.7998q.13035-1.34325.1308-2.1884V28.7959h2.7481Z" transform="translate(-13.16422 -28.3016)"/><path class="cls-6" d="M128.39839,44.0957h-8.8291V28.7959h8.6348v1.8828h-5.9297v4.3936h5.4971v1.8388h-5.4971v5.3018h6.124Z" transform="translate(-13.16422 -28.3016)"/><path class="cls-6" d="M134.11229,30.5273a2.33179,2.33179,0,0,0-1.3418.3682,1.35317,1.35317,0,0,0-.6064,1.1924,2.44769,2.44769,0,0,0,1.7754,2.3623q3.11565,1.2144,3.289,1.3437,1.796,1.2789,1.7959,4.3135,0,4.20555-4.7178,4.2051-2.70555,0-3.6357-1.1738a7.02656,7.02656,0,0,1-.8652-3.8467l2.8564.1084q-.1509,2.87835,1.5586,2.8779a1.98621,1.98621,0,0,0,1.709-.6289,3.26319,3.26319,0,0,0,.3896-1.8428q0-1.34325-1.7529-2.2539-3.24615-1.7124-3.2676-1.7548a4.29316,4.29316,0,0,1-1.7744-3.6416,3.08249,3.08249,0,0,1,1.4502-2.7745,7.44593,7.44593,0,0,1,6.31841-.1533q1.36363.99615,1.36329,4.1123h-2.6397a6.05407,6.05407,0,0,0-.1953-1.9482Q135.45364,30.5283,134.11229,30.5273Z" transform="translate(-13.16422 -28.3016)"/></svg>