<svg xmlns="http://www.w3.org/2000/svg" width="55" height="55" viewBox="0 0 55 55">
  <g id="arrow-slider-left-black" transform="translate(269.99 287.66) rotate(180)">
    <path id="Path_9" data-name="Path 9" d="M242.49,287.66a27.5,27.5,0,1,1,27.5-27.5A27.532,27.532,0,0,1,242.49,287.66Zm0-52.609A25.108,25.108,0,1,0,267.6,260.16,25.136,25.136,0,0,0,242.49,235.051Z" transform="translate(0 0)"/>
    <path id="Path_10" data-name="Path 10" d="M244.742,249.932l-5.753-5.753a1.356,1.356,0,0,0-1.918,1.918l3.439,3.438H225.665a1.356,1.356,0,0,0,0,2.712h14.845l-3.437,3.438a1.356,1.356,0,1,0,1.918,1.918l5.753-5.751A1.359,1.359,0,0,0,244.742,249.932Z" transform="translate(7.767 9.269)"/>
  </g>
</svg>
