<svg xmlns="http://www.w3.org/2000/svg" width="30" height="30" viewBox="0 0 30 30">
  <g id="icon-account" transform="translate(-668 -369)">
    <path id="Path_1" data-name="Path 1" d="M698,384a15,15,0,1,0-25.131,11.05l-.014.014.485.41c.032.026.067.047.1.075.258.212.527.415.8.612.088.064.176.127.267.191.293.2.591.392.9.571.067.04.134.077.2.117.333.189.677.37,1.025.532l.078.038a15.112,15.112,0,0,0,3.627,1.148l.1.016q.591.1,1.2.159c.048.006.1.008.146.014.4.032.81.053,1.223.053s.812-.021,1.212-.053c.051-.006.1-.008.152-.011.4-.037.8-.091,1.187-.157.035-.005.07-.014.1-.019a14.8,14.8,0,0,0,3.574-1.121c.042-.018.085-.037.125-.056.338-.159.666-.33.988-.511.08-.046.16-.091.239-.139.294-.173.584-.351.864-.546.1-.067.2-.141.3-.213.24-.171.476-.349.7-.535.051-.04.107-.077.157-.118l.5-.418-.016-.013A14.949,14.949,0,0,0,698,384Zm-28.908,0a13.908,13.908,0,1,1,23.131,10.4,3.894,3.894,0,0,0-.488-.293l-4.618-2.309a1.211,1.211,0,0,1-.67-1.087V389.1c.106-.131.22-.28.335-.445a11.073,11.073,0,0,0,1.428-2.793,1.98,1.98,0,0,0,1.137-1.8v-1.933a1.994,1.994,0,0,0-.482-1.292V378.29a4.414,4.414,0,0,0-1.028-3.2c-1.005-1.145-2.632-1.729-4.837-1.729s-3.832.584-4.837,1.729a4.41,4.41,0,0,0-1.028,3.2v2.546a1.99,1.99,0,0,0-.482,1.292v1.933a1.985,1.985,0,0,0,.73,1.54,10.164,10.164,0,0,0,1.688,3.483v1.579a1.221,1.221,0,0,1-.633,1.069l-4.315,2.351a3.9,3.9,0,0,0-.41.262A13.881,13.881,0,0,1,669.092,384Zm22.069,11.253c-.192.138-.387.274-.584.4l-.271.176c-.259.159-.52.309-.789.453-.058.029-.117.058-.175.09a13.878,13.878,0,0,1-1.9.8c-.021.008-.045.017-.069.024-.341.115-.688.213-1.039.3h0c-.355.088-.712.16-1.071.221a.078.078,0,0,0-.029.006c-.338.053-.682.093-1.023.125l-.184.013c-.338.024-.679.04-1.02.04s-.69-.016-1.034-.043c-.058,0-.119-.008-.178-.013-.346-.029-.69-.072-1.03-.125l-.046-.008a14.172,14.172,0,0,1-2.123-.53l-.063-.024c-.344-.114-.682-.245-1.015-.389l-.008,0c-.314-.136-.624-.285-.93-.444-.039-.022-.08-.041-.12-.062-.279-.149-.551-.309-.82-.476-.08-.051-.16-.1-.237-.155-.248-.16-.493-.33-.73-.509l-.071-.056.05-.029,4.315-2.352a2.311,2.311,0,0,0,1.2-2.027V388.7l-.126-.152a9.084,9.084,0,0,1-1.637-3.39l-.048-.216-.187-.12a.9.9,0,0,1-.421-.759v-1.933a.907.907,0,0,1,.3-.669l.181-.162V378.26l-.005-.071a3.3,3.3,0,0,1,.761-2.379c.789-.9,2.142-1.355,4.017-1.355a5.144,5.144,0,0,1,4.006,1.345,3.342,3.342,0,0,1,.772,2.389l-.005,3.11.181.163a.9.9,0,0,1,.3.666v1.933a.915.915,0,0,1-.644.861l-.272.082-.088.272a10.1,10.1,0,0,1-1.361,2.743c-.144.2-.282.381-.4.519l-.133.152v2.019a2.3,2.3,0,0,0,1.273,2.064l4.619,2.309c.029.013.058.03.088.045-.059.043-.118.083-.176.126Zm0,0" fill="#fff"/>
  </g>
</svg>
